<svg id="svg" version="1.1" xmlns="http://www.w3.org/2000/svg" xmlns:xlink="http://www.w3.org/1999/xlink" width="400" height="400" viewBox="0, 0, 400,400"><g id="svgg"><path id="path0" d="M80.700 224.293 C 81.635 224.377,83.165 224.377,84.100 224.293 C 85.035 224.209,84.270 224.140,82.400 224.140 C 80.530 224.140,79.765 224.209,80.700 224.293 M114.684 224.703 L 91.568 224.807 91.701 260.703 L 91.835 296.600 92.763 299.400 C 95.363 307.237,100.222 313.188,107.202 317.084 C 118.214 323.230,126.801 327.328,137.200 331.401 C 140.390 332.650,143.360 333.831,143.800 334.026 C 144.827 334.479,155.390 337.995,157.100 338.452 C 158.422 338.806,160.280 339.325,162.800 340.045 C 165.781 340.897,166.746 341.141,171.200 342.172 C 183.412 344.998,196.407 347.004,208.922 347.995 C 216.548 348.598,238.246 348.485,246.000 347.801 C 256.504 346.875,263.400 345.946,271.600 344.353 C 285.837 341.586,297.259 338.427,310.200 333.674 C 314.753 332.003,332.596 324.900,335.112 323.758 C 336.273 323.231,337.401 322.800,337.617 322.800 C 337.834 322.800,338.323 322.635,338.705 322.434 C 339.821 321.845,341.304 321.241,359.400 314.001 C 368.860 310.216,377.363 306.777,378.296 306.359 C 379.228 305.942,380.227 305.600,380.516 305.600 C 380.804 305.600,381.211 305.447,381.420 305.259 C 382.224 304.538,389.381 301.954,390.073 302.135 C 390.473 302.240,390.710 302.178,390.598 301.997 C 390.486 301.816,390.585 301.605,390.817 301.528 C 391.049 301.450,391.346 300.350,391.476 299.082 C 391.607 297.814,391.869 296.681,392.057 296.565 C 392.505 296.288,392.504 287.712,392.056 287.435 C 391.867 287.318,391.600 286.267,391.463 285.098 C 391.216 282.997,388.731 277.471,387.344 275.938 C 386.977 275.532,386.798 275.200,386.947 275.200 C 387.096 275.200,386.227 274.210,385.017 273.000 C 383.807 271.790,382.677 270.800,382.505 270.800 C 382.333 270.800,381.968 270.440,381.693 270.000 C 381.418 269.560,381.002 269.200,380.768 269.200 C 380.534 269.200,380.071 268.928,379.739 268.596 C 379.407 268.264,378.970 268.095,378.768 268.220 C 378.565 268.345,378.400 268.257,378.400 268.024 C 378.400 267.791,378.040 267.600,377.600 267.600 C 377.160 267.600,376.800 267.449,376.800 267.264 C 376.800 266.816,374.965 266.000,373.958 266.000 C 373.515 266.000,373.242 265.856,373.351 265.680 C 373.459 265.504,372.885 265.316,372.074 265.263 C 371.263 265.209,370.540 264.993,370.467 264.782 C 370.306 264.322,359.735 264.259,359.452 264.716 C 359.344 264.890,358.574 265.079,357.740 265.135 C 356.907 265.191,356.087 265.454,355.918 265.718 C 355.750 265.983,355.609 266.063,355.606 265.895 C 355.603 265.727,354.948 265.862,354.151 266.195 C 353.354 266.528,352.364 266.800,351.951 266.800 C 351.538 266.800,351.200 266.980,351.200 267.200 C 351.200 267.420,350.570 267.600,349.800 267.600 C 349.030 267.600,348.400 267.780,348.400 268.000 C 348.400 268.220,347.770 268.400,347.000 268.400 C 346.230 268.400,345.600 268.580,345.600 268.800 C 345.600 269.020,345.049 269.200,344.376 269.200 C 343.663 269.200,343.256 269.367,343.400 269.600 C 343.547 269.838,343.071 270.000,342.224 270.000 C 341.441 270.000,340.800 270.180,340.800 270.400 C 340.800 270.620,340.271 270.800,339.624 270.800 C 338.977 270.800,338.336 270.980,338.200 271.200 C 338.064 271.420,337.543 271.600,337.043 271.600 C 336.543 271.600,336.010 271.723,335.859 271.874 C 335.371 272.363,332.631 273.188,331.476 273.194 C 330.830 273.197,330.458 273.370,330.600 273.600 C 330.737 273.822,330.436 274.003,329.924 274.006 C 329.416 274.009,328.190 274.294,327.200 274.638 C 326.211 274.983,325.086 275.288,324.700 275.317 C 324.315 275.347,324.000 275.512,324.000 275.685 C 324.000 275.858,323.865 275.979,323.700 275.953 C 322.558 275.772,320.793 276.065,321.000 276.400 C 321.143 276.632,320.754 276.800,320.072 276.800 C 319.426 276.800,318.269 277.063,317.500 277.384 C 316.731 277.705,315.960 277.840,315.787 277.684 C 315.613 277.528,315.601 277.625,315.759 277.900 C 315.956 278.241,315.743 278.400,315.090 278.400 C 314.564 278.400,314.009 278.525,313.856 278.677 C 313.704 278.829,313.187 279.014,312.707 279.087 C 312.227 279.160,311.737 279.351,311.617 279.510 C 311.498 279.670,311.220 279.828,311.000 279.863 C 310.780 279.898,309.988 280.022,309.239 280.138 C 308.491 280.254,307.771 280.516,307.639 280.720 C 307.372 281.133,305.768 281.101,305.341 280.674 C 305.052 280.385,303.600 281.508,303.600 282.019 C 303.600 282.760,304.949 282.765,305.467 282.026 C 305.772 281.590,306.273 281.330,306.580 281.448 C 306.886 281.565,307.499 281.468,307.941 281.232 C 309.260 280.526,310.128 281.733,309.911 283.972 C 309.596 287.239,308.678 288.484,303.945 292.072 C 292.747 300.561,297.679 299.973,237.600 299.981 C 186.228 299.989,188.799 300.107,186.159 297.617 C 182.153 293.838,182.980 287.233,187.800 284.515 L 189.400 283.613 234.600 283.594 C 290.874 283.570,290.081 283.636,295.200 278.600 C 298.701 275.156,301.384 274.450,305.033 276.014 C 307.123 276.910,307.467 276.777,307.664 275.000 C 307.737 274.340,307.941 273.694,308.118 273.564 C 308.858 273.021,308.926 263.096,308.207 260.400 C 307.826 258.970,307.504 257.583,307.491 257.317 C 307.477 257.052,307.215 256.738,306.908 256.620 C 306.601 256.502,306.462 256.223,306.600 256.000 C 306.738 255.777,306.561 255.304,306.206 254.949 C 305.851 254.594,305.457 253.785,305.330 253.152 C 305.196 252.480,304.843 252.000,304.483 252.000 C 304.144 252.000,303.976 251.891,304.109 251.757 C 304.336 251.531,304.114 251.171,302.919 249.834 C 302.655 249.538,302.550 249.184,302.686 249.048 C 302.822 248.911,302.623 248.800,302.243 248.800 C 301.863 248.800,301.635 248.665,301.734 248.500 C 301.834 248.335,301.665 247.968,301.358 247.684 C 301.051 247.401,300.800 247.300,300.800 247.461 C 300.800 247.621,300.517 247.404,300.170 246.976 C 299.824 246.549,299.671 246.470,299.830 246.800 C 299.990 247.130,299.500 246.815,298.741 246.100 C 297.983 245.385,297.232 244.800,297.073 244.800 C 296.914 244.800,296.113 244.383,295.292 243.874 C 294.471 243.365,292.535 242.555,290.989 242.074 L 288.177 241.200 240.501 241.200 C 193.566 241.200,192.802 241.188,191.400 240.400 C 190.617 239.960,189.666 239.597,189.288 239.594 C 188.698 239.589,188.685 239.533,189.200 239.200 C 189.698 238.878,189.664 238.809,189.000 238.793 C 188.169 238.774,186.681 237.852,186.987 237.546 C 187.083 237.450,186.676 237.331,186.081 237.282 C 185.486 237.233,184.940 237.015,184.867 236.797 C 184.793 236.578,184.480 236.400,184.170 236.400 C 183.860 236.400,183.382 236.040,183.107 235.600 C 182.832 235.160,182.301 234.800,181.927 234.800 C 181.553 234.800,181.136 234.620,181.000 234.400 C 180.864 234.180,180.418 234.000,180.010 234.000 C 179.601 234.000,179.207 233.854,179.133 233.675 C 178.948 233.221,174.379 230.800,173.710 230.800 C 173.408 230.800,172.426 230.445,171.526 230.010 C 170.627 229.576,169.750 229.307,169.578 229.414 C 169.406 229.520,169.025 229.381,168.732 229.104 C 168.440 228.827,167.975 228.582,167.700 228.560 C 167.425 228.538,166.829 228.493,166.376 228.460 C 165.923 228.427,165.649 228.245,165.766 228.055 C 165.883 227.865,165.579 227.742,165.090 227.780 C 164.600 227.818,164.020 227.753,163.800 227.636 C 163.262 227.349,162.848 227.239,161.200 226.947 C 160.430 226.811,159.571 226.516,159.290 226.293 C 159.010 226.069,158.684 225.982,158.566 226.100 C 158.448 226.218,157.484 226.086,156.424 225.806 C 155.364 225.527,153.747 225.362,152.831 225.439 C 151.817 225.525,151.259 225.428,151.406 225.190 C 151.559 224.943,149.308 224.800,145.256 224.800 C 141.741 224.800,138.626 224.755,138.333 224.700 C 138.040 224.645,127.398 224.646,114.684 224.703 " stroke="none" fill="#fcdcc4" fill-rule="evenodd"></path><path id="path1" d="M7.600 275.000 L 7.600 342.400 41.300 342.400 L 75.000 342.400 75.000 275.000 L 75.000 207.600 41.300 207.600 L 7.600 207.600 7.600 275.000 M44.908 300.587 C 50.302 302.841,51.707 309.771,47.654 314.136 C 44.003 318.069,37.303 317.248,34.537 312.528 C 30.559 305.741,37.664 297.561,44.908 300.587 " stroke="none" fill="#ac35f8" fill-rule="evenodd"></path><path id="path2" d="M252.000 32.800 C 252.000 33.037,250.533 33.200,248.400 33.200 C 246.267 33.200,244.800 33.363,244.800 33.600 C 244.800 33.820,243.911 34.000,242.824 34.000 C 241.737 34.000,240.736 34.180,240.600 34.400 C 240.464 34.620,239.643 34.800,238.776 34.800 C 237.909 34.800,237.200 34.980,237.200 35.200 C 237.200 35.420,236.581 35.600,235.824 35.600 C 235.067 35.600,234.336 35.780,234.200 36.000 C 234.064 36.220,233.423 36.400,232.776 36.400 C 232.129 36.400,231.600 36.580,231.600 36.800 C 231.600 37.020,231.060 37.200,230.400 37.200 C 229.740 37.200,229.200 37.380,229.200 37.600 C 229.200 37.820,228.750 38.000,228.200 38.000 C 227.650 38.000,227.200 38.180,227.200 38.400 C 227.200 38.620,226.840 38.800,226.400 38.800 C 225.960 38.800,225.600 38.980,225.600 39.200 C 225.600 39.420,225.240 39.600,224.800 39.600 C 224.360 39.600,224.000 39.780,224.000 40.000 C 224.000 40.220,223.640 40.400,223.200 40.400 C 222.760 40.400,222.400 40.580,222.400 40.800 C 222.400 41.020,222.166 41.200,221.880 41.200 C 221.117 41.200,219.207 42.147,219.203 42.527 C 219.201 42.707,218.840 42.740,218.400 42.600 C 217.941 42.454,217.600 42.528,217.600 42.773 C 217.600 43.008,217.240 43.200,216.800 43.200 C 216.360 43.200,216.000 43.380,216.000 43.600 C 216.000 43.820,215.758 44.000,215.462 44.000 C 215.166 44.000,214.598 44.360,214.200 44.800 C 213.802 45.240,213.184 45.600,212.826 45.600 C 212.469 45.600,211.917 45.960,211.600 46.400 C 211.283 46.840,210.821 47.200,210.574 47.200 C 210.326 47.200,209.798 47.560,209.400 48.000 C 209.002 48.440,208.524 48.800,208.338 48.800 C 208.153 48.800,207.259 49.520,206.352 50.400 C 205.445 51.280,204.543 52.000,204.346 52.000 C 204.149 52.000,202.481 53.485,200.638 55.300 C 198.796 57.115,196.278 59.577,195.044 60.771 C 193.810 61.965,192.800 63.180,192.800 63.471 C 192.800 63.762,192.620 64.000,192.400 64.000 C 192.180 64.000,192.000 64.198,192.000 64.440 C 192.000 64.681,191.460 65.383,190.800 66.000 C 190.140 66.617,189.600 67.369,189.600 67.672 C 189.600 67.975,189.240 68.483,188.800 68.800 C 188.360 69.117,188.000 69.657,188.000 70.000 C 188.000 70.343,187.640 70.883,187.200 71.200 C 186.760 71.517,186.400 72.097,186.400 72.488 C 186.400 72.880,186.220 73.200,186.000 73.200 C 185.780 73.200,185.600 73.436,185.600 73.725 C 185.600 74.013,185.284 74.598,184.897 75.025 C 184.511 75.451,183.592 77.060,182.855 78.600 C 182.119 80.140,181.355 81.713,181.158 82.095 C 180.961 82.477,180.800 83.062,180.800 83.395 C 180.800 83.728,180.620 84.000,180.400 84.000 C 180.180 84.000,180.000 84.349,180.000 84.776 C 180.000 85.203,179.820 85.664,179.600 85.800 C 179.380 85.936,179.200 86.487,179.200 87.024 C 179.200 87.561,179.020 88.000,178.800 88.000 C 178.580 88.000,178.400 88.540,178.400 89.200 C 178.400 89.860,178.220 90.400,178.000 90.400 C 177.780 90.400,177.600 90.763,177.600 91.207 C 177.600 91.651,177.232 93.390,176.781 95.070 C 176.331 96.750,176.047 98.345,176.150 98.614 C 176.253 98.883,176.168 99.272,175.961 99.479 C 175.268 100.172,175.049 104.111,175.043 116.000 C 175.037 129.018,175.172 130.643,176.809 137.200 C 177.056 138.190,177.354 139.585,177.473 140.300 C 177.591 141.015,177.848 141.600,178.044 141.600 C 178.240 141.600,178.400 142.039,178.400 142.576 C 178.400 143.113,178.580 143.664,178.800 143.800 C 179.020 143.936,179.200 144.577,179.200 145.224 C 179.200 145.871,179.380 146.400,179.600 146.400 C 179.820 146.400,180.000 146.940,180.000 147.600 C 180.000 148.260,180.180 148.800,180.400 148.800 C 180.620 148.800,180.800 149.160,180.800 149.600 C 180.800 150.040,180.980 150.400,181.200 150.400 C 181.420 150.400,181.600 150.672,181.600 151.005 C 181.600 151.338,181.760 151.923,181.956 152.305 C 182.152 152.687,182.736 153.900,183.254 155.000 C 183.772 156.100,184.423 157.240,184.701 157.532 C 184.980 157.825,185.125 158.197,185.025 158.359 C 184.925 158.522,185.193 158.907,185.621 159.215 C 186.050 159.524,186.400 160.097,186.400 160.488 C 186.400 160.880,186.580 161.200,186.800 161.200 C 187.020 161.200,187.200 161.520,187.200 161.912 C 187.200 162.303,187.560 162.883,188.000 163.200 C 188.440 163.517,188.800 164.057,188.800 164.400 C 188.800 164.743,189.160 165.283,189.600 165.600 C 190.040 165.917,190.400 166.373,190.400 166.613 C 190.400 166.853,190.716 167.398,191.103 167.825 C 191.490 168.251,192.148 169.140,192.565 169.800 C 193.335 171.017,196.909 174.855,199.766 177.532 C 200.627 178.340,202.288 179.945,203.457 181.100 C 204.626 182.255,205.740 183.200,205.932 183.200 C 206.124 183.200,206.846 183.740,207.537 184.400 C 208.228 185.060,208.974 185.600,209.196 185.600 C 209.418 185.600,209.600 185.759,209.600 185.954 C 209.600 186.149,210.205 186.596,210.945 186.947 C 211.685 187.298,212.517 187.859,212.794 188.193 C 213.071 188.527,213.531 188.800,213.816 188.800 C 214.100 188.800,214.393 188.957,214.467 189.149 C 214.647 189.621,218.619 191.600,219.387 191.600 C 219.724 191.600,220.000 191.780,220.000 192.000 C 220.000 192.220,220.360 192.400,220.800 192.400 C 221.240 192.400,221.600 192.580,221.600 192.800 C 221.600 193.020,221.960 193.200,222.400 193.200 C 222.840 193.200,223.200 193.380,223.200 193.600 C 223.200 193.820,223.555 194.000,223.988 194.000 C 224.421 194.000,225.417 194.360,226.200 194.800 C 226.983 195.240,227.979 195.600,228.412 195.600 C 228.845 195.600,229.200 195.780,229.200 196.000 C 229.200 196.220,229.740 196.400,230.400 196.400 C 231.060 196.400,231.600 196.580,231.600 196.800 C 231.600 197.020,232.129 197.200,232.776 197.200 C 233.423 197.200,234.064 197.380,234.200 197.600 C 234.336 197.820,235.067 198.000,235.824 198.000 C 236.581 198.000,237.200 198.180,237.200 198.400 C 237.200 198.620,238.100 198.800,239.200 198.800 C 240.300 198.800,241.200 198.980,241.200 199.200 C 241.200 199.420,242.179 199.600,243.376 199.600 C 244.573 199.600,245.664 199.780,245.800 200.000 C 246.138 200.547,270.000 200.547,270.000 200.000 C 270.000 199.780,270.979 199.600,272.176 199.600 C 273.373 199.600,274.464 199.420,274.600 199.200 C 274.736 198.980,275.647 198.800,276.624 198.800 C 277.601 198.800,278.400 198.620,278.400 198.400 C 278.400 198.180,279.120 198.000,280.000 198.000 C 280.880 198.000,281.600 197.820,281.600 197.600 C 281.600 197.380,282.140 197.200,282.800 197.200 C 283.460 197.200,284.000 197.020,284.000 196.800 C 284.000 196.580,284.540 196.400,285.200 196.400 C 285.860 196.400,286.400 196.220,286.400 196.000 C 286.400 195.780,286.940 195.600,287.600 195.600 C 288.260 195.600,288.800 195.420,288.800 195.200 C 288.800 194.980,289.149 194.800,289.576 194.800 C 290.003 194.800,290.464 194.620,290.600 194.400 C 290.736 194.180,291.197 194.000,291.624 194.000 C 292.051 194.000,292.400 193.820,292.400 193.600 C 292.400 193.380,292.760 193.200,293.200 193.200 C 293.640 193.200,294.000 193.020,294.000 192.800 C 294.000 192.580,294.360 192.400,294.800 192.400 C 295.240 192.400,295.600 192.243,295.600 192.050 C 295.600 191.857,296.116 191.597,296.748 191.470 C 297.379 191.344,298.827 190.692,299.965 190.020 C 301.104 189.349,302.207 188.800,302.418 188.800 C 302.628 188.800,302.800 188.620,302.800 188.400 C 302.800 188.180,303.036 188.000,303.325 188.000 C 303.613 188.000,304.236 187.640,304.708 187.200 C 305.180 186.760,305.754 186.400,305.983 186.400 C 306.212 186.400,306.400 186.259,306.400 186.086 C 306.400 185.914,306.950 185.447,307.623 185.050 C 308.295 184.653,309.459 183.714,310.209 182.964 C 310.960 182.214,311.749 181.600,311.964 181.600 C 312.510 181.600,322.378 171.788,324.033 169.600 C 324.782 168.610,325.530 167.740,325.697 167.667 C 325.864 167.593,326.000 167.254,326.000 166.914 C 326.000 166.573,326.316 166.003,326.703 165.647 C 327.089 165.291,327.660 164.505,327.970 163.900 C 328.281 163.295,328.685 162.800,328.868 162.800 C 329.050 162.800,329.200 162.480,329.200 162.088 C 329.200 161.697,329.560 161.117,330.000 160.800 C 330.440 160.483,330.800 159.903,330.800 159.512 C 330.800 159.120,330.980 158.800,331.200 158.800 C 331.420 158.800,331.600 158.530,331.600 158.200 C 331.600 157.870,331.780 157.600,332.000 157.600 C 332.220 157.600,332.400 157.255,332.400 156.833 C 332.400 156.412,332.535 156.007,332.700 155.933 C 333.132 155.741,334.800 152.428,334.800 151.762 C 334.800 151.453,334.980 151.200,335.200 151.200 C 335.420 151.200,335.600 150.840,335.600 150.400 C 335.600 149.960,335.747 149.600,335.928 149.600 C 336.108 149.600,336.500 148.700,336.800 147.600 C 337.100 146.500,337.492 145.600,337.672 145.600 C 337.853 145.600,338.000 145.060,338.000 144.400 C 338.000 143.740,338.180 143.200,338.400 143.200 C 338.620 143.200,338.800 142.660,338.800 142.000 C 338.800 141.340,338.980 140.800,339.200 140.800 C 339.420 140.800,339.600 140.181,339.600 139.424 C 339.600 138.667,339.761 137.948,339.958 137.826 C 340.155 137.705,340.403 136.929,340.509 136.103 C 340.616 135.276,340.819 134.150,340.960 133.600 C 341.101 133.050,341.330 130.575,341.470 128.100 C 341.609 125.625,341.875 123.600,342.061 123.600 C 342.504 123.600,342.504 110.112,342.062 109.838 C 341.876 109.723,341.601 107.332,341.451 104.523 C 341.300 101.715,341.003 99.243,340.789 99.029 C 340.575 98.815,340.400 98.057,340.400 97.344 C 340.400 96.631,340.220 95.936,340.000 95.800 C 339.780 95.664,339.600 94.933,339.600 94.176 C 339.600 93.419,339.420 92.800,339.200 92.800 C 338.980 92.800,338.800 92.260,338.800 91.600 C 338.800 90.940,338.620 90.400,338.400 90.400 C 338.180 90.400,338.000 89.860,338.000 89.200 C 338.000 88.540,337.820 88.000,337.600 88.000 C 337.380 88.000,337.200 87.460,337.200 86.800 C 337.200 86.140,337.020 85.600,336.800 85.600 C 336.580 85.600,336.400 85.240,336.400 84.800 C 336.400 84.360,336.220 84.000,336.000 84.000 C 335.780 84.000,335.600 83.721,335.600 83.381 C 335.600 83.040,335.240 82.016,334.800 81.106 C 334.360 80.195,334.000 79.214,334.000 78.925 C 334.000 78.636,333.864 78.400,333.698 78.400 C 333.531 78.400,333.140 77.815,332.828 77.100 C 332.516 76.385,331.932 75.509,331.530 75.153 C 331.129 74.797,330.800 74.212,330.800 73.853 C 330.800 73.494,330.620 73.200,330.400 73.200 C 330.180 73.200,330.000 72.880,330.000 72.488 C 330.000 72.097,329.640 71.517,329.200 71.200 C 328.760 70.883,328.400 70.343,328.400 70.000 C 328.400 69.657,328.040 69.117,327.600 68.800 C 327.160 68.483,326.800 67.969,326.800 67.659 C 326.800 67.348,326.467 66.803,326.059 66.447 C 325.652 66.091,325.035 65.260,324.688 64.600 C 324.341 63.940,322.605 61.886,320.829 60.035 C 319.053 58.185,317.600 56.520,317.600 56.335 C 317.600 56.151,317.330 56.000,317.000 56.000 C 316.670 56.000,316.400 55.820,316.400 55.600 C 316.400 55.380,316.210 55.200,315.978 55.200 C 315.746 55.200,314.496 54.120,313.200 52.800 C 311.904 51.480,310.637 50.400,310.383 50.400 C 310.129 50.400,309.417 49.860,308.800 49.200 C 308.183 48.540,307.564 48.000,307.423 48.000 C 307.282 48.000,306.780 47.640,306.308 47.200 C 305.836 46.760,305.213 46.400,304.925 46.400 C 304.636 46.400,304.400 46.242,304.400 46.049 C 304.400 45.855,303.860 45.473,303.200 45.200 C 302.540 44.927,302.000 44.545,302.000 44.351 C 302.000 44.158,301.662 44.000,301.249 44.000 C 300.836 44.000,300.274 43.730,300.000 43.400 C 299.726 43.070,299.164 42.800,298.751 42.800 C 298.338 42.800,297.999 42.665,297.997 42.500 C 297.993 42.141,296.056 41.200,295.320 41.200 C 295.034 41.200,294.800 41.020,294.800 40.800 C 294.800 40.580,294.440 40.400,294.000 40.400 C 293.560 40.400,293.200 40.220,293.200 40.000 C 293.200 39.780,292.750 39.600,292.200 39.600 C 291.650 39.600,291.200 39.420,291.200 39.200 C 291.200 38.980,290.840 38.800,290.400 38.800 C 289.960 38.800,289.600 38.620,289.600 38.400 C 289.600 38.180,289.060 38.000,288.400 38.000 C 287.740 38.000,287.200 37.820,287.200 37.600 C 287.200 37.380,286.660 37.200,286.000 37.200 C 285.340 37.200,284.800 37.020,284.800 36.800 C 284.800 36.580,284.260 36.400,283.600 36.400 C 282.940 36.400,282.400 36.220,282.400 36.000 C 282.400 35.780,281.680 35.600,280.800 35.600 C 279.920 35.600,279.200 35.420,279.200 35.200 C 279.200 34.980,278.480 34.800,277.600 34.800 C 276.720 34.800,276.000 34.620,276.000 34.400 C 276.000 34.180,275.100 34.000,274.000 34.000 C 272.900 34.000,272.000 33.820,272.000 33.600 C 272.000 33.361,270.467 33.200,268.200 33.200 C 265.933 33.200,264.400 33.039,264.400 32.800 C 264.400 32.551,262.067 32.400,258.200 32.400 C 254.333 32.400,252.000 32.551,252.000 32.800 M39.797 300.934 C 37.282 301.908,35.676 303.227,34.840 305.003 C 33.966 306.863,33.706 310.171,34.400 310.600 C 34.620 310.736,34.800 311.111,34.800 311.434 C 34.800 314.367,40.928 316.909,44.451 315.436 C 50.892 312.745,50.686 302.370,44.166 301.079 C 43.524 300.952,42.550 300.763,42.000 300.659 C 41.450 300.554,40.459 300.678,39.797 300.934 " stroke="none" fill="#fcc868" fill-rule="evenodd"></path><path id="path3" d="M78.501 224.452 C 78.335 224.614,77.480 224.804,76.600 224.873 L 75.000 225.000 74.969 274.800 C 74.938 324.539,74.958 326.000,75.675 326.000 C 75.885 326.000,76.329 326.272,76.661 326.604 C 76.993 326.936,77.411 327.117,77.590 327.006 C 77.770 326.895,78.014 327.060,78.134 327.372 C 78.254 327.684,79.038 328.259,79.876 328.649 C 80.714 329.039,81.490 329.458,81.600 329.579 C 81.805 329.805,83.551 330.756,87.800 332.957 C 89.120 333.641,90.260 334.335,90.333 334.500 C 90.407 334.665,90.842 334.800,91.300 334.800 C 91.758 334.800,92.010 334.923,91.860 335.073 C 91.710 335.224,92.085 335.580,92.693 335.866 C 93.302 336.151,94.070 336.555,94.400 336.764 C 95.192 337.264,96.524 337.743,96.900 337.664 C 97.065 337.629,97.200 337.776,97.200 337.990 C 97.200 338.370,100.386 340.000,101.129 340.000 C 101.334 340.000,101.722 340.265,101.991 340.589 C 102.260 340.914,103.092 341.294,103.840 341.434 C 104.588 341.574,105.200 341.849,105.200 342.045 C 105.200 342.240,105.560 342.400,106.000 342.400 C 106.440 342.400,106.800 342.580,106.800 342.800 C 106.800 343.020,107.160 343.200,107.600 343.200 C 108.040 343.200,108.400 343.380,108.400 343.600 C 108.400 343.820,108.760 344.000,109.200 344.000 C 109.640 344.000,110.000 344.180,110.000 344.400 C 110.000 344.620,110.349 344.800,110.776 344.800 C 111.203 344.800,111.664 344.980,111.800 345.200 C 111.936 345.420,112.397 345.600,112.824 345.600 C 113.251 345.600,113.600 345.780,113.600 346.000 C 113.600 346.220,114.050 346.400,114.600 346.400 C 115.150 346.400,115.600 346.580,115.600 346.800 C 115.600 347.020,116.050 347.200,116.600 347.200 C 117.150 347.200,117.600 347.380,117.600 347.600 C 117.600 347.820,117.960 348.000,118.400 348.000 C 118.840 348.000,119.200 348.147,119.200 348.328 C 119.200 348.508,120.111 348.904,121.225 349.207 C 122.339 349.510,123.340 349.903,123.449 350.079 C 123.558 350.256,124.087 350.400,124.624 350.400 C 125.161 350.400,125.600 350.580,125.600 350.800 C 125.600 351.020,125.949 351.200,126.376 351.200 C 126.803 351.200,127.264 351.380,127.400 351.600 C 127.536 351.820,127.973 352.000,128.370 352.000 C 128.768 352.000,129.972 352.349,131.047 352.775 C 132.121 353.201,134.350 353.947,136.000 354.432 C 141.781 356.132,144.205 356.866,144.800 357.095 C 145.130 357.223,145.529 357.301,145.686 357.268 C 145.843 357.236,146.433 357.385,146.997 357.599 C 148.236 358.070,149.636 358.378,151.909 358.679 C 152.849 358.804,153.715 359.062,153.833 359.253 C 153.951 359.444,154.656 359.600,155.400 359.600 C 156.144 359.600,156.864 359.780,157.000 360.000 C 157.136 360.220,158.047 360.400,159.024 360.400 C 160.001 360.400,160.800 360.580,160.800 360.800 C 160.800 361.020,161.689 361.200,162.776 361.200 C 163.863 361.200,164.864 361.380,165.000 361.600 C 165.136 361.820,166.137 362.000,167.224 362.000 C 168.311 362.000,169.200 362.180,169.200 362.400 C 169.200 362.622,170.267 362.800,171.600 362.800 C 172.920 362.800,174.000 362.965,174.000 363.167 C 174.000 363.517,175.786 363.730,182.999 364.241 C 184.759 364.365,186.384 364.621,186.611 364.809 C 186.837 364.997,189.667 365.187,192.900 365.232 C 196.132 365.277,198.688 365.457,198.579 365.634 C 198.288 366.104,220.096 366.096,221.334 365.625 C 221.904 365.408,224.717 365.206,227.585 365.176 C 230.453 365.145,232.800 364.958,232.800 364.760 C 232.800 364.562,234.319 364.400,236.176 364.400 C 238.033 364.400,239.664 364.220,239.800 364.000 C 239.936 363.780,241.297 363.600,242.824 363.600 C 244.408 363.600,245.600 363.428,245.600 363.200 C 245.600 362.974,246.741 362.800,248.224 362.800 C 249.871 362.800,250.755 362.651,250.600 362.400 C 250.447 362.152,251.196 362.000,252.576 362.000 C 253.799 362.000,254.800 361.820,254.800 361.600 C 254.800 361.380,255.700 361.200,256.800 361.200 C 257.900 361.200,258.800 361.020,258.800 360.800 C 258.800 360.580,259.700 360.400,260.800 360.400 C 261.900 360.400,262.800 360.220,262.800 360.000 C 262.800 359.780,263.520 359.600,264.400 359.600 C 265.280 359.600,266.000 359.420,266.000 359.200 C 266.000 358.980,266.709 358.800,267.576 358.800 C 268.443 358.800,269.254 358.636,269.378 358.435 C 269.502 358.235,270.051 358.120,270.599 358.180 C 271.146 358.240,271.796 358.046,272.042 357.749 C 272.289 357.452,272.652 357.309,272.850 357.431 C 273.178 357.634,277.710 356.437,279.919 355.563 C 280.424 355.363,281.189 355.200,281.619 355.200 C 282.048 355.200,282.400 355.058,282.400 354.885 C 282.400 354.712,282.762 354.543,283.204 354.510 C 283.978 354.451,288.145 353.119,289.800 352.400 C 290.240 352.209,291.320 351.824,292.200 351.545 C 293.080 351.265,293.971 350.893,294.180 350.718 C 294.389 350.543,294.974 350.400,295.480 350.400 C 295.986 350.400,296.400 350.220,296.400 350.000 C 296.400 349.780,296.755 349.600,297.188 349.600 C 297.621 349.600,298.617 349.240,299.400 348.800 C 300.183 348.360,301.179 348.000,301.612 348.000 C 302.045 348.000,302.400 347.853,302.400 347.672 C 302.400 347.492,303.300 347.100,304.400 346.800 C 305.500 346.500,306.400 346.108,306.400 345.928 C 306.400 345.747,306.850 345.600,307.400 345.600 C 307.950 345.600,308.400 345.420,308.400 345.200 C 308.400 344.980,308.760 344.800,309.200 344.800 C 309.640 344.800,310.000 344.620,310.000 344.400 C 310.000 344.180,310.450 344.000,311.000 344.000 C 311.550 344.000,312.000 343.820,312.000 343.600 C 312.000 343.380,312.450 343.200,313.000 343.200 C 313.550 343.200,314.000 343.020,314.000 342.800 C 314.000 342.580,314.450 342.400,315.000 342.400 C 315.550 342.400,316.000 342.220,316.000 342.000 C 316.000 341.780,316.369 341.600,316.820 341.600 C 317.271 341.600,318.216 341.295,318.920 340.922 C 319.624 340.549,320.463 340.199,320.783 340.145 C 321.403 340.040,324.133 338.959,325.295 338.359 C 325.677 338.162,326.247 338.000,326.561 338.000 C 326.876 338.000,327.193 337.865,327.267 337.700 C 327.409 337.381,330.796 336.038,332.300 335.706 C 332.795 335.596,333.200 335.348,333.200 335.153 C 333.200 334.959,333.549 334.800,333.976 334.800 C 334.403 334.800,334.864 334.620,335.000 334.400 C 335.136 334.180,335.687 334.000,336.224 334.000 C 336.761 334.000,337.200 333.820,337.200 333.600 C 337.200 333.380,337.472 333.200,337.805 333.200 C 338.138 333.200,338.768 333.020,339.205 332.800 C 339.642 332.580,340.358 332.220,340.795 332.000 C 341.232 331.780,341.952 331.600,342.395 331.600 C 342.838 331.600,343.200 331.420,343.200 331.200 C 343.200 330.980,343.560 330.800,344.000 330.800 C 344.440 330.800,344.800 330.620,344.800 330.400 C 344.800 330.180,345.149 330.000,345.576 330.000 C 346.003 330.000,346.464 329.820,346.600 329.600 C 346.736 329.380,347.287 329.200,347.824 329.200 C 348.361 329.200,348.800 329.020,348.800 328.800 C 348.800 328.580,349.155 328.400,349.588 328.400 C 350.021 328.400,351.017 328.040,351.800 327.600 C 352.583 327.160,353.489 326.800,353.812 326.800 C 354.135 326.800,354.400 326.620,354.400 326.400 C 354.400 326.180,354.850 326.000,355.400 326.000 C 355.950 326.000,356.400 325.820,356.400 325.600 C 356.400 325.380,356.814 325.200,357.320 325.200 C 357.826 325.200,358.456 324.984,358.720 324.720 C 358.984 324.456,359.200 324.370,359.200 324.528 C 359.200 324.687,359.965 324.426,360.900 323.949 C 361.835 323.472,362.645 323.108,362.700 323.141 C 362.976 323.304,364.384 322.765,367.901 321.149 C 369.277 320.517,370.661 320.000,370.977 320.000 C 371.294 320.000,371.664 319.820,371.800 319.600 C 371.936 319.380,372.397 319.200,372.824 319.200 C 373.251 319.200,373.600 319.020,373.600 318.800 C 373.600 318.580,373.943 318.400,374.362 318.400 C 375.178 318.400,378.512 316.799,378.733 316.300 C 378.807 316.135,379.122 316.000,379.433 316.000 C 379.745 316.000,380.000 315.859,380.000 315.686 C 380.000 315.514,380.529 315.060,381.176 314.678 C 382.618 313.826,385.079 311.432,386.330 309.665 C 388.472 306.639,389.509 304.905,390.124 303.323 L 390.775 301.646 389.088 302.169 C 386.700 302.908,381.872 304.855,381.420 305.260 C 381.211 305.447,380.804 305.600,380.516 305.600 C 380.227 305.600,379.228 305.942,378.296 306.359 C 377.363 306.777,368.860 310.216,359.400 314.001 C 341.304 321.241,339.821 321.845,338.705 322.434 C 338.323 322.635,337.834 322.800,337.617 322.800 C 337.401 322.800,336.273 323.231,335.112 323.758 C 332.596 324.900,314.753 332.003,310.200 333.674 C 289.153 341.403,269.495 345.729,246.000 347.801 C 238.246 348.485,216.548 348.598,208.922 347.995 C 196.407 347.004,183.412 344.998,171.200 342.172 C 166.708 341.132,165.462 340.818,162.600 340.000 C 161.830 339.780,160.570 339.420,159.800 339.200 C 159.030 338.980,157.815 338.644,157.100 338.452 C 155.390 337.995,144.827 334.479,143.800 334.026 C 143.360 333.831,140.390 332.650,137.200 331.401 C 126.801 327.328,118.214 323.230,107.202 317.084 C 100.222 313.188,95.363 307.237,92.763 299.400 L 91.835 296.600 91.701 260.700 L 91.568 224.800 114.584 224.800 C 130.900 224.800,137.600 224.673,137.600 224.365 C 137.600 223.864,79.014 223.951,78.501 224.452 M298.800 275.834 C 298.030 276.166,296.410 277.411,295.200 278.601 C 290.080 283.636,290.872 283.570,234.600 283.594 L 189.400 283.613 187.800 284.515 C 182.980 287.233,182.153 293.838,186.159 297.617 C 188.799 300.107,186.228 299.989,237.600 299.981 C 297.679 299.973,292.747 300.561,303.945 292.072 C 308.678 288.484,309.596 287.239,309.911 283.972 C 310.120 281.807,309.254 280.529,308.024 281.187 C 307.627 281.400,306.785 281.534,306.151 281.487 C 305.252 281.419,305.026 281.553,305.118 282.100 C 305.248 282.878,304.898 282.976,304.007 282.413 C 303.507 282.097,303.574 281.863,304.434 280.919 C 307.232 277.850,307.324 276.996,304.967 275.986 C 302.796 275.055,300.727 275.004,298.800 275.834 " stroke="none" fill="#f4ccac" fill-rule="evenodd"></path><path id="path4" d="M38.615 300.823 C 35.100 302.576,33.600 304.833,33.600 308.368 C 33.600 317.604,46.397 319.717,49.437 310.983 C 51.747 304.346,44.739 297.767,38.615 300.823 M44.166 301.079 C 50.686 302.370,50.892 312.745,44.451 315.436 C 40.928 316.909,34.800 314.367,34.800 311.434 C 34.800 311.111,34.620 310.736,34.400 310.600 C 33.706 310.171,33.966 306.863,34.840 305.003 C 36.002 302.532,39.783 300.238,42.000 300.659 C 42.550 300.763,43.524 300.952,44.166 301.079 " stroke="none" fill="#f1c48c" fill-rule="evenodd"></path></g></svg>